<svg
    xmlns="http://www.w3.org/2000/svg"
    width="512"
    height="512"
    viewBox="0 0 16.933 16.933"
>
  <defs>
    <linearGradient
            id="bg"
            x1="8.466"
            x2="8.466"
            y1="1.058"
            y2="15.875"
            gradientUnits="userSpaceOnUse"
        >
      <stop offset="0" stop-color="#323131" />
      <stop offset="1" stop-color="#141414" />
    </linearGradient>

    <linearGradient
            id="shine"
            x1="2.598"
            x2="10.583"
            y1="2.836"
            y2="11.312"
            gradientUnits="userSpaceOnUse"
        >
      <stop offset="0" stop-color="#fff" />
      <stop offset="1" stop-color="#fff" stop-opacity="0" />
    </linearGradient>

    <linearGradient
            id="markFill"
            x1="8.4"
            x2="8.4"
            y1="4.15"
            y2="12.8"
            gradientUnits="userSpaceOnUse"
        >
      <stop offset="0" stop-color="#777" />
      <stop offset="1" stop-color="#5f5f5f" />
    </linearGradient>

    <filter id="softBlur" width="1.05" height="1.05" x="-.025" y="-.025">
      <feGaussianBlur stdDeviation=".07" />
    </filter>
  </defs>

  <path
        fill="url(#bg)"
        d="M5.36 1.058c-1.53 0-2.577.457-3.26 1.2-.678.74-1.042 1.8-1.042 3v6.416c0 1.2.364 2.261 1.043 3 .682.744 1.73 1.2 3.26 1.2h6.23c1.53 0 2.578-.456 3.26-1.2.679-.739 1.024-1.702 1.024-3V5.5c0-1.57-.345-2.502-1.024-3.242-.682-.743-1.73-1.2-3.26-1.2H6.745z"
    />

  <g filter="url(#softBlur)" opacity=".35">
    <path
            fill="url(#shine)"
            d="M5.36 1.058c-1.53 0-2.577.457-3.26 1.2-.678.74-1.042 1.8-1.042 3.001v6.415c0 1.2.364 2.26 1.043 3 .682.744 1.73 1.2 3.26 1.2h6.23c1.53 0 2.577-.456 3.26-1.2.678-.739 1.024-1.702 1.024-3V5.5c0-1.57-.346-2.502-1.024-3.242-.683-.743-1.73-1.2-3.26-1.2H6.745zm0 .264h6.232c1.477 0 2.437.432 3.064 1.116.634.69.954 1.53.954 3.062v6.174c0 1.251-.322 2.134-.954 2.822-.627.684-1.587 1.114-3.064 1.114H5.359c-1.477 0-2.437-.43-3.064-1.114-.625-.682-.973-1.675-.973-2.822V5.26c0-1.148.348-2.14.973-2.822.627-.684 1.587-1.116 3.064-1.116"
        />
  </g>

  <g stroke="#777" stroke-width=".14" stroke-linecap="round" opacity=".45">
    <line x1="3.35" y1="8.47" x2="13.55" y2="8.47" />
    <line x1="4.45" y1="4.10" x2="9.50" y2="4.10" />
    <line x1="4.45" y1="12.85" x2="9.50" y2="12.85" />
    <line x1="8.55" y1="3.45" x2="8.55" y2="13.55" />
    <line x1="4.80" y1="2.95" x2="10.35" y2="14.00" />
    <line x1="7.65" y1="2.95" x2="12.15" y2="9.55" />
    <line x1="12.15" y1="7.40" x2="4.80" y2="14.00" />
  </g>

  <path
        d="M5.45 4.10H8.55L11.48 8.47L8.55 12.85H5.45L8.38 8.47L5.45 4.10Z"
        fill="url(#markFill)"
        fill-opacity=".82"
        stroke="#fff"
        stroke-width=".28"
        stroke-linejoin="miter"
    />

  <g stroke="#fff" stroke-width=".28" stroke-linecap="round">
    <line x1="7.25" y1="8.47" x2="9.85" y2="8.47" />
    <line x1="8.55" y1="7.20" x2="8.55" y2="9.75" />
  </g>
</svg>
