<svg
    xmlns="http://www.w3.org/2000/svg"
    width="512"
    height="512"
    viewBox="0 0 16.933 16.933"
>
  <defs>
    <linearGradient
            id="bg"
            x1="8.466"
            x2="8.466"
            y1="1.058"
            y2="15.875"
            gradientUnits="userSpaceOnUse"
        >
      <stop offset="0" stop-color="#323131" />
      <stop offset="1" stop-color="#141414" />
    </linearGradient>

    <linearGradient
            id="shine"
            x1="2.598"
            x2="10.583"
            y1="2.836"
            y2="11.312"
            gradientUnits="userSpaceOnUse"
        >
      <stop offset="0" stop-color="#fff" />
      <stop offset="1" stop-color="#fff" stop-opacity="0" />
    </linearGradient>

    <linearGradient
            id=""
            x1="9.6"
            x2="11.4"
            y1="2.8"
            y2="14.2"
            gradientUnits="userSpaceOnUse"
        >
      <stop offset="0" stop-color="#3aa0ff" />
      <stop offset="1" stop-color="#1b5fc9" />
    </linearGradient>

    <filter id="softBlur" width="1.05" height="1.05" x="-.025" y="-.025">
      <feGaussianBlur stdDeviation=".07" />
    </filter>
  </defs>

  <path
        fill="url(#bg)"
        d="M5.36 1.058c-1.53 0-2.577.457-3.26 1.2-.678.74-1.042 1.8-1.042 3v6.416c0 1.2.364 2.261 1.043 3 .682.744 1.73 1.2 3.26 1.2h6.23c1.53 0 2.578-.456 3.26-1.2.679-.739 1.024-1.702 1.024-3V5.5c0-1.57-.345-2.502-1.024-3.242-.682-.743-1.73-1.2-3.26-1.2H6.745z"
    />

  <g filter="url(#softBlur)" opacity=".35">
    <path
            fill="url(#shine)"
            d="M5.36 1.058c-1.53 0-2.577.457-3.26 1.2-.678.74-1.042 1.8-1.042 3.001v6.415c0 1.2.364 2.26 1.043 3 .682.744 1.73 1.2 3.26 1.2h6.23c1.53 0 2.577-.456 3.26-1.2.678-.739 1.024-1.702 1.024-3V5.5c0-1.57-.346-2.502-1.024-3.242-.683-.743-1.73-1.2-3.26-1.2H6.745zm0 .264h6.232c1.477 0 2.437.432 3.064 1.116.634.69.954 1.53.954 3.062v6.174c0 1.251-.322 2.134-.954 2.822-.627.684-1.587 1.114-3.064 1.114H5.359c-1.477 0-2.437-.43-3.064-1.114-.625-.682-.973-1.675-.973-2.822V5.26c0-1.148.348-2.14.973-2.822.627-.684 1.587-1.116 3.064-1.116"
        />
  </g>

<g clip-path="url(#clipIcon)">
  <g transform="translate(1.6,1.1) scale(0.029)" fill="#ebebeb">
    <path d="m183 280 41 28 27 41 87-62-94-96"/>
    <circle cx="340" cy="190" r="49"/>
    <g fill="none" stroke="#ebebeb">
      <circle cx="179" cy="352" r="63" stroke-width="19"/>
      <path d="M35 293 L177 352" stroke-width="80" stroke-linecap="round"/>
      <circle cx="340" cy="190" r="81" stroke-width="32"/>
    </g>
  </g>
</g>

</svg>
