<svg
    xmlns="http://www.w3.org/2000/svg"
    xmlns:xlink="http://www.w3.org/1999/xlink"
    version="1.1"
    width="256"
    height="256"
    viewBox="0 0 256 256"
    xml:space="preserve"
>
<g
        style="stroke: none; stroke-width: 0; stroke-dasharray: none; stroke-linecap: butt; stroke-linejoin: miter; stroke-miterlimit: 10; fill: none; fill-rule: nonzero; opacity: 1;"
        transform="translate(1.4065934065934016 1.4065934065934016) scale(2.81 2.81)"
    >
	<linearGradient
            id="SVGID_3"
            gradientUnits="userSpaceOnUse"
            x1="45"
            y1="0"
            x2="45"
            y2="90"
        >
<stop offset="0%" style="stop-color:rgb(238,235,240);stop-opacity: 1" />
<stop offset="100%" style="stop-color:rgb(163,162,164);stop-opacity: 1" />
</linearGradient>
 style="stroke: none; stroke-width: 1; stroke-dasharray: none; stroke-linecap: butt; stroke-linejoin: miter; stroke-miterlimit: 10; fill: url(#SVGID_3); fill-rule: nonzero; opacity: 1;" transform=" matrix(1 0 0 1 0 0) " stroke-linecap="round"/>

	<linearGradient
            id="SVGID_4"
            gradientUnits="userSpaceOnUse"
            x1="20.4275"
            y1="45.5987"
            x2="69.0414"
            y2="45.5987"
        >
<stop offset="0%" style="stop-color:rgb(238,235,240);stop-opacity: 1" />
<stop offset="100%" style="stop-color:rgb(163,162,164);stop-opacity: 1" />
</linearGradient>
<path
            d="M 68.886 48.342 c 0 0 -1.421 -0.518 -3.337 -1.016 c 0.029 -0.387 0.046 -0.777 0.053 -1.17 c 1.931 -0.281 3.439 -0.637 3.439 -0.637 s -1.482 -0.352 -3.453 -0.625 c -0.016 -0.39 -0.042 -0.777 -0.079 -1.161 c 1.893 -0.504 3.358 -1.037 3.358 -1.037 s -1.52 -0.178 -3.517 -0.22 c -0.06 -0.383 -0.132 -0.763 -0.212 -1.138 c 1.829 -0.723 3.229 -1.425 3.229 -1.425 s -1.538 -0.001 -3.533 0.192 c -0.104 -0.371 -0.218 -0.738 -0.341 -1.101 c 1.738 -0.933 3.054 -1.797 3.054 -1.797 s -1.536 0.179 -3.503 0.604 c -0.145 -0.354 -0.3 -0.704 -0.464 -1.048 c 1.625 -1.132 2.838 -2.149 2.838 -2.149 s -1.512 0.358 -3.424 1.012 c -0.185 -0.333 -0.378 -0.66 -0.58 -0.982 c 1.489 -1.318 2.581 -2.474 2.581 -2.474 s -1.467 0.534 -3.295 1.409 c -0.221 -0.308 -0.45 -0.609 -0.686 -0.904 c 1.33 -1.486 2.284 -2.767 2.284 -2.767 s -1.4 0.703 -3.118 1.788 c -0.254 -0.279 -0.515 -0.551 -0.783 -0.816 c 1.151 -1.634 1.953 -3.021 1.953 -3.021 S 60.036 28.72 58.452 30 c -0.283 -0.248 -0.572 -0.488 -0.868 -0.721 c 0.955 -1.758 1.591 -3.232 1.591 -3.232 s -1.205 1.011 -2.631 2.468 c -0.309 -0.213 -0.623 -0.419 -0.944 -0.615 c 0.745 -1.859 1.206 -3.398 1.206 -3.398 s -1.08 1.145 -2.327 2.758 c -0.331 -0.176 -0.667 -0.343 -1.009 -0.502 c 0.524 -1.933 0.804 -3.516 0.804 -3.516 s -0.939 1.262 -1.99 3.009 c -0.349 -0.136 -0.703 -0.263 -1.061 -0.381 c 0.296 -1.98 0.39 -3.585 0.39 -3.585 s -0.786 1.362 -1.627 3.219 c -0.362 -0.095 -0.728 -0.181 -1.098 -0.257 c 0.064 -2 -0.029 -3.603 -0.029 -3.603 s -0.623 1.444 -1.242 3.386 c -0.371 -0.052 -0.744 -0.095 -1.12 -0.127 c -0.169 -1.994 -0.448 -3.575 -0.448 -3.575 s -0.45 1.504 -0.84 3.502 c -0.179 -0.005 -0.358 -0.007 -0.538 -0.007 c -0.176 0 -0.352 0.002 -0.527 0.007 c -0.392 -1.959 -0.847 -3.495 -0.847 -3.495 s -0.276 1.542 -0.438 3.567 c -0.378 0.032 -0.754 0.075 -1.126 0.127 c -0.616 -1.895 -1.244 -3.363 -1.244 -3.363 s -0.095 1.556 -0.021 3.579 c -0.374 0.076 -0.743 0.163 -1.109 0.259 c -0.83 -1.804 -1.62 -3.183 -1.62 -3.183 s 0.086 1.55 0.393 3.545 c -0.363 0.119 -0.723 0.248 -1.077 0.386 c -1.031 -1.69 -1.972 -2.961 -1.972 -2.961 s 0.265 1.523 0.798 3.463 c -0.348 0.161 -0.692 0.332 -1.029 0.512 c -1.217 -1.554 -2.295 -2.702 -2.295 -2.702 s 0.438 1.475 1.19 3.333 c -0.329 0.201 -0.651 0.412 -0.967 0.631 c -1.385 -1.396 -2.583 -2.407 -2.583 -2.407 s 0.603 1.407 1.561 3.159 c -0.305 0.239 -0.602 0.487 -0.893 0.743 c -1.533 -1.221 -2.833 -2.081 -2.833 -2.081 s 0.758 1.32 1.908 2.943 c -0.277 0.274 -0.546 0.556 -0.807 0.845 c -1.657 -1.029 -3.039 -1.728 -3.039 -1.728 s 0.9 1.215 2.224 2.687 c -0.245 0.306 -0.482 0.618 -0.71 0.938 c -1.757 -0.824 -3.2 -1.354 -3.2 -1.354 s 1.027 1.094 2.505 2.396 c -0.209 0.334 -0.41 0.675 -0.6 1.021 c -1.831 -0.611 -3.315 -0.966 -3.315 -0.966 s 1.139 0.96 2.747 2.076 c -0.17 0.359 -0.33 0.723 -0.48 1.093 c -1.88 -0.391 -3.383 -0.57 -3.383 -0.57 s 1.233 0.815 2.95 1.732 c -0.128 0.378 -0.244 0.762 -0.35 1.15 c -1.903 -0.168 -3.407 -0.172 -3.407 -0.172 s 1.312 0.662 3.115 1.371 c -0.083 0.393 -0.156 0.789 -0.217 1.19 c -1.9 0.055 -3.385 0.225 -3.385 0.225 s 1.372 0.502 3.237 0.996 c -0.037 0.401 -0.063 0.806 -0.077 1.214 c -1.873 0.275 -3.32 0.614 -3.32 0.614 s 1.412 0.337 3.312 0.61 c 0.01 0.41 0.031 0.818 0.064 1.222 c -1.819 0.489 -3.207 0.99 -3.207 0.99 s 1.431 0.17 3.341 0.221 c 0.057 0.409 0.125 0.814 0.206 1.215 c -1.741 0.694 -3.051 1.348 -3.051 1.348 s 1.431 0.002 3.324 -0.167 c 0.105 0.401 0.222 0.798 0.351 1.189 c -1.641 0.888 -2.858 1.686 -2.858 1.686 s 1.413 -0.163 3.266 -0.548 c 0.152 0.388 0.317 0.769 0.491 1.145 c -1.52 1.069 -2.631 1.998 -2.631 1.998 s 1.379 -0.325 3.169 -0.92 c 0.197 0.368 0.405 0.73 0.623 1.084 c -1.381 1.235 -2.373 2.282 -2.373 2.282 s 1.328 -0.481 3.032 -1.278 c 0.239 0.343 0.488 0.68 0.747 1.008 c -1.225 1.384 -2.085 2.535 -2.085 2.535 s 1.259 -0.63 2.855 -1.617 c 0.278 0.314 0.565 0.62 0.861 0.917 c -1.053 1.514 -1.772 2.753 -1.772 2.753 s 1.174 -0.77 2.642 -1.933 c 0.314 0.28 0.635 0.551 0.965 0.812 c -0.869 1.623 -1.437 2.934 -1.437 2.934 s 1.074 -0.899 2.394 -2.221 c 0.345 0.242 0.697 0.474 1.056 0.695 c -0.673 1.71 -1.084 3.075 -1.084 3.075 s 0.96 -1.015 2.116 -2.479 c 0.371 0.2 0.749 0.388 1.133 0.566 c -0.469 1.775 -0.718 3.176 -0.718 3.176 s 0.835 -1.118 1.812 -2.705 c 0.392 0.155 0.789 0.297 1.192 0.429 c -0.26 1.817 -0.344 3.238 -0.344 3.238 s 0.7 -1.209 1.487 -2.9 c 0.406 0.107 0.817 0.203 1.233 0.286 c -0.047 1.837 0.034 3.259 0.034 3.259 s 0.556 -1.285 1.142 -3.059 c 0.415 0.059 0.833 0.106 1.255 0.14 c 0.167 1.834 0.413 3.241 0.413 3.241 s 0.404 -1.344 0.78 -3.178 c 0.169 0.004 0.338 0.006 0.508 0.006 c 0.252 0 0.502 -0.006 0.752 -0.015 c 0.379 1.806 0.788 3.18 0.788 3.18 s 0.246 -1.386 0.406 -3.256 c 0.42 -0.039 0.836 -0.088 1.248 -0.151 c 0.587 1.752 1.154 3.071 1.154 3.071 s 0.084 -1.408 0.025 -3.288 c 0.41 -0.087 0.816 -0.186 1.218 -0.297 c 0.788 1.677 1.507 2.926 1.507 2.926 s -0.081 -1.414 -0.358 -3.278 c 0.395 -0.134 0.785 -0.281 1.169 -0.438 c 0.98 1.58 1.844 2.742 1.844 2.742 s -0.246 -1.402 -0.74 -3.229 c 0.375 -0.179 0.743 -0.369 1.104 -0.569 c 1.162 1.462 2.16 2.522 2.16 2.522 s -0.409 -1.373 -1.117 -3.139 c 0.349 -0.22 0.69 -0.45 1.025 -0.689 c 1.329 1.323 2.451 2.267 2.451 2.267 s -0.57 -1.325 -1.484 -3.005 c 0.318 -0.257 0.63 -0.523 0.932 -0.798 c 1.48 1.166 2.713 1.979 2.713 1.979 s -0.725 -1.259 -1.834 -2.828 c 0.284 -0.29 0.561 -0.589 0.828 -0.895 c 1.613 0.992 2.94 1.66 2.94 1.66 s -0.872 -1.173 -2.162 -2.609 c 0.247 -0.319 0.485 -0.646 0.714 -0.98 c 1.725 0.802 3.13 1.315 3.13 1.315 s -1.008 -1.07 -2.463 -2.352 c 0.207 -0.344 0.404 -0.694 0.591 -1.05 c 1.815 0.6 3.279 0.948 3.279 0.948 s -1.132 -0.952 -2.734 -2.06 c 0.164 -0.363 0.317 -0.732 0.461 -1.105 c 1.881 0.388 3.385 0.565 3.385 0.565 s -1.244 -0.82 -2.973 -1.738 c 0.12 -0.377 0.229 -0.757 0.328 -1.143 c 1.923 0.168 3.448 0.169 3.448 0.169 s -1.341 -0.675 -3.176 -1.389 c 0.074 -0.384 0.138 -0.773 0.19 -1.164 C 67.359 48.52 68.886 48.342 68.886 48.342 z M 27.343 45.76 c 0 -9.555 7.773 -17.328 17.328 -17.328 c 9.555 0 17.328 7.773 17.328 17.328 c 0 9.555 -7.773 17.328 -17.328 17.328 C 35.116 63.088 27.343 55.315 27.343 45.76 z"
            style="stroke: none; stroke-width: 1; stroke-dasharray: none; stroke-linecap: butt; stroke-linejoin: miter; stroke-miterlimit: 10; fill: url(#SVGID_4); fill-rule: nonzero; opacity: 1;"
            transform=" matrix(1 0 0 1 0 0) "
            stroke-linecap="round"
        />
	<linearGradient
            id="SVGID_5"
            gradientUnits="userSpaceOnUse"
            x1="70.716"
            y1="19.6317"
            x2="18.7358"
            y2="71.6119"
        >
<stop offset="0%" style="stop-color:rgb(238,235,240);stop-opacity: 1" />
<stop offset="100%" style="stop-color:rgb(163,162,164);stop-opacity: 1" />
</linearGradient>
<path
            d="M 76.265 50.154 c 2.698 0.316 4.985 -0.277 4.985 -0.277 s -2.088 -1.104 -4.786 -1.419 c -0.031 -0.004 -0.061 -0.006 -0.092 -0.01 c 0.058 -0.657 0.098 -1.32 0.115 -1.988 c 0.031 0 0.06 0.001 0.091 0.001 c 2.717 0 4.919 -0.853 4.919 -0.853 s -2.202 -0.854 -4.919 -0.854 c -0.031 0 -0.061 0.001 -0.093 0.001 c -0.018 -0.668 -0.058 -1.33 -0.117 -1.987 c 0.031 -0.003 0.061 -0.006 0.091 -0.01 c 2.698 -0.315 4.786 -1.419 4.786 -1.419 s -2.287 -0.592 -4.985 -0.277 c -0.03 0.004 -0.059 0.008 -0.09 0.012 c -0.095 -0.661 -0.208 -1.315 -0.343 -1.962 c 0.028 -0.007 0.055 -0.012 0.084 -0.019 c 2.644 -0.626 4.59 -1.965 4.59 -1.965 s -2.34 -0.323 -4.983 0.303 c -0.028 0.007 -0.056 0.014 -0.084 0.02 c -0.171 -0.644 -0.361 -1.28 -0.57 -1.908 c 0.027 -0.01 0.052 -0.018 0.079 -0.028 c 2.553 -0.929 4.331 -2.484 4.331 -2.484 s -2.361 -0.049 -4.914 0.88 c -0.026 0.01 -0.052 0.019 -0.078 0.029 c -0.245 -0.619 -0.51 -1.228 -0.792 -1.827 c 0.026 -0.013 0.051 -0.024 0.076 -0.037 c 2.428 -1.219 4.013 -2.97 4.013 -2.97 s -2.351 0.225 -4.779 1.444 c -0.026 0.013 -0.051 0.026 -0.077 0.039 c -0.315 -0.586 -0.648 -1.16 -0.998 -1.723 c 0.025 -0.016 0.049 -0.031 0.074 -0.047 c 2.27 -1.493 3.641 -3.416 3.641 -3.416 s -2.309 0.497 -4.579 1.989 c -0.025 0.017 -0.049 0.033 -0.074 0.05 c -0.38 -0.545 -0.777 -1.077 -1.19 -1.596 c 0.023 -0.019 0.046 -0.038 0.069 -0.057 c 2.082 -1.746 3.22 -3.815 3.22 -3.815 s -2.236 0.762 -4.317 2.507 c -0.023 0.02 -0.046 0.039 -0.069 0.059 c -0.44 -0.497 -0.895 -0.98 -1.365 -1.448 c 0.02 -0.021 0.041 -0.042 0.061 -0.064 c 1.865 -1.976 2.755 -4.163 2.755 -4.163 s -2.132 1.016 -3.997 2.992 c -0.021 0.022 -0.041 0.044 -0.061 0.066 c -0.494 -0.442 -1.002 -0.87 -1.523 -1.281 c 0.017 -0.023 0.034 -0.045 0.051 -0.068 c 1.623 -2.179 2.253 -4.455 2.253 -4.455 s -2 1.257 -3.623 3.435 c -0.017 0.023 -0.034 0.046 -0.051 0.069 c -0.542 -0.382 -1.097 -0.747 -1.663 -1.095 c 0.014 -0.024 0.028 -0.047 0.041 -0.071 c 1.359 -2.353 1.721 -4.687 1.721 -4.687 s -1.841 1.481 -3.199 3.833 c -0.013 0.023 -0.026 0.046 -0.039 0.069 c -0.582 -0.316 -1.177 -0.613 -1.78 -0.893 c 0.01 -0.024 0.021 -0.047 0.031 -0.071 c 1.077 -2.495 1.165 -4.855 1.165 -4.855 s -1.656 1.684 -2.733 4.178 c -0.01 0.024 -0.019 0.047 -0.029 0.071 c -0.615 -0.246 -1.239 -0.473 -1.872 -0.681 c 0.007 -0.024 0.015 -0.048 0.022 -0.072 c 0.78 -2.603 0.594 -4.957 0.594 -4.957 s -1.449 1.865 -2.229 4.467 c -0.007 0.025 -0.014 0.049 -0.022 0.074 c -0.639 -0.172 -1.284 -0.327 -1.938 -0.46 c 0.004 -0.025 0.009 -0.049 0.013 -0.073 c 0.472 -2.676 0.014 -4.993 0.014 -4.993 s -1.223 2.021 -1.695 4.696 c -0.005 0.026 -0.009 0.051 -0.013 0.077 c -0.653 -0.096 -1.313 -0.172 -1.979 -0.228 c 0.002 -0.026 0.004 -0.052 0.005 -0.079 c 0.159 -2.712 -0.565 -4.96 -0.565 -4.96 s -0.98 2.149 -1.139 4.861 c -0.002 0.027 -0.003 0.053 -0.004 0.08 c -0.331 -0.01 -0.664 -0.017 -0.998 -0.017 c -0.333 0 -0.664 0.007 -0.994 0.017 c -0.001 -0.026 -0.002 -0.052 -0.004 -0.078 c -0.158 -2.712 -1.138 -4.861 -1.138 -4.861 s -0.724 2.248 -0.567 4.96 c 0.002 0.026 0.003 0.051 0.005 0.077 c -0.666 0.056 -1.325 0.132 -1.979 0.228 c -0.004 -0.024 -0.008 -0.047 -0.012 -0.071 c -0.472 -2.676 -1.695 -4.696 -1.695 -4.696 s -0.458 2.317 0.013 4.993 c 0.004 0.023 0.008 0.045 0.013 0.068 c -0.654 0.133 -1.3 0.287 -1.939 0.46 c -0.006 -0.022 -0.012 -0.043 -0.019 -0.065 c -0.779 -2.603 -2.228 -4.468 -2.228 -4.468 s -0.186 2.355 0.593 4.957 c 0.006 0.022 0.013 0.043 0.02 0.064 c -0.633 0.208 -1.258 0.435 -1.873 0.681 c -0.009 -0.02 -0.017 -0.04 -0.025 -0.06 c -1.076 -2.495 -2.732 -4.179 -2.732 -4.179 s 0.088 2.36 1.164 4.855 c 0.009 0.021 0.018 0.04 0.027 0.061 c -0.604 0.28 -1.199 0.577 -1.781 0.894 c -0.011 -0.019 -0.021 -0.037 -0.032 -0.056 c -1.358 -2.353 -3.199 -3.833 -3.199 -3.833 s 0.362 2.334 1.72 4.687 c 0.011 0.02 0.023 0.038 0.034 0.058 c -0.567 0.348 -1.122 0.714 -1.664 1.096 c -0.013 -0.018 -0.026 -0.036 -0.04 -0.054 c -1.622 -2.179 -3.622 -3.436 -3.622 -3.436 s 0.63 2.277 2.252 4.456 c 0.014 0.018 0.027 0.036 0.041 0.054 c -0.522 0.411 -1.03 0.84 -1.525 1.283 c -0.016 -0.017 -0.031 -0.033 -0.047 -0.05 c -1.864 -1.976 -3.996 -2.992 -3.996 -2.992 s 0.89 2.188 2.754 4.164 c 0.016 0.017 0.031 0.033 0.047 0.049 c -0.471 0.469 -0.926 0.953 -1.366 1.45 c -0.017 -0.015 -0.034 -0.029 -0.052 -0.044 c -2.081 -1.746 -4.317 -2.508 -4.317 -2.508 s 1.138 2.07 3.219 3.816 c 0.017 0.014 0.034 0.028 0.051 0.042 c -0.413 0.52 -0.81 1.053 -1.191 1.598 c -0.018 -0.012 -0.035 -0.024 -0.053 -0.036 c -2.27 -1.493 -4.579 -1.99 -4.579 -1.99 s 1.37 1.924 3.64 3.417 c 0.018 0.012 0.035 0.023 0.053 0.034 c -0.35 0.564 -0.684 1.139 -0.999 1.725 c -0.018 -0.009 -0.035 -0.018 -0.052 -0.027 c -2.428 -1.219 -4.779 -1.445 -4.779 -1.445 s 1.585 1.751 4.012 2.971 c 0.018 0.009 0.035 0.017 0.053 0.026 c -0.282 0.6 -0.547 1.21 -0.792 1.83 c -0.017 -0.006 -0.034 -0.013 -0.051 -0.019 c -2.553 -0.929 -4.914 -0.88 -4.914 -0.88 s 1.777 1.556 4.33 2.485 c 0.018 0.006 0.035 0.012 0.053 0.018 c -0.209 0.628 -0.399 1.266 -0.57 1.911 c -0.018 -0.004 -0.036 -0.009 -0.055 -0.013 c -2.643 -0.627 -4.983 -0.304 -4.983 -0.304 s 1.946 1.339 4.589 1.966 c 0.019 0.004 0.037 0.008 0.056 0.013 c -0.134 0.648 -0.248 1.303 -0.342 1.964 c -0.02 -0.002 -0.039 -0.005 -0.059 -0.007 c -2.698 -0.315 -4.985 0.276 -4.985 0.276 s 2.088 1.104 4.786 1.42 c 0.021 0.002 0.041 0.004 0.062 0.007 c -0.058 0.658 -0.098 1.321 -0.116 1.99 c -0.021 0 -0.041 0 -0.061 0 c -2.717 0 -4.919 0.853 -4.919 0.853 s 2.202 0.854 4.919 0.854 c 0.021 0 0.041 0 0.062 0 c 0.018 0.669 0.058 1.332 0.117 1.99 c -0.021 0.002 -0.041 0.004 -0.061 0.007 c -2.698 0.315 -4.787 1.419 -4.787 1.419 s 2.286 0.593 4.985 0.277 c 0.02 -0.002 0.04 -0.005 0.06 -0.007 c 0.095 0.661 0.209 1.316 0.344 1.964 c -0.019 0.004 -0.036 0.008 -0.055 0.012 c -2.643 0.626 -4.589 1.965 -4.589 1.965 s 2.34 0.323 4.983 -0.303 c 0.018 -0.004 0.036 -0.009 0.055 -0.013 c 0.171 0.645 0.361 1.282 0.571 1.91 c -0.017 0.006 -0.034 0.012 -0.051 0.018 c -2.553 0.929 -4.331 2.484 -4.331 2.484 s 2.362 0.049 4.915 -0.88 c 0.017 -0.006 0.034 -0.013 0.051 -0.019 c 0.245 0.62 0.511 1.229 0.793 1.83 c -0.017 0.009 -0.034 0.016 -0.051 0.025 c -2.428 1.219 -4.013 2.97 -4.013 2.97 s 2.351 -0.225 4.779 -1.445 c 0.018 -0.009 0.035 -0.018 0.052 -0.027 c 0.316 0.586 0.65 1.161 1 1.725 c -0.017 0.011 -0.034 0.022 -0.051 0.033 c -2.27 1.493 -3.641 3.416 -3.641 3.416 s 2.309 -0.497 4.579 -1.989 c 0.018 -0.012 0.035 -0.024 0.053 -0.035 c 0.381 0.545 0.779 1.078 1.193 1.598 c -0.017 0.014 -0.033 0.027 -0.05 0.041 c -2.081 1.746 -3.22 3.816 -3.22 3.816 s 2.236 -0.762 4.317 -2.508 c 0.017 -0.015 0.033 -0.029 0.051 -0.044 c 0.441 0.497 0.897 0.981 1.368 1.45 c -0.015 0.016 -0.03 0.031 -0.046 0.047 c -1.865 1.976 -2.755 4.164 -2.755 4.164 s 2.132 -1.016 3.997 -2.992 c 0.016 -0.017 0.03 -0.033 0.046 -0.05 c 0.495 0.442 1.003 0.871 1.526 1.282 c -0.013 0.018 -0.026 0.034 -0.039 0.051 c -1.623 2.18 -2.253 4.456 -2.253 4.456 s 2 -1.257 3.623 -3.436 c 0.013 -0.018 0.026 -0.036 0.039 -0.054 c 0.543 0.382 1.098 0.748 1.665 1.096 c -0.011 0.019 -0.022 0.036 -0.033 0.055 c -1.359 2.353 -1.721 4.687 -1.721 4.687 s 1.841 -1.481 3.199 -3.833 c 0.011 -0.019 0.02 -0.036 0.031 -0.055 c 0.583 0.316 1.178 0.613 1.782 0.893 c -0.008 0.02 -0.017 0.038 -0.026 0.058 c -1.076 2.495 -1.165 4.855 -1.165 4.855 s 1.656 -1.684 2.732 -4.178 c 0.009 -0.02 0.016 -0.039 0.024 -0.058 c 0.615 0.246 1.241 0.472 1.874 0.68 c -0.006 0.021 -0.013 0.04 -0.019 0.061 c -0.779 2.603 -0.593 4.957 -0.593 4.957 s 1.449 -1.865 2.229 -4.467 c 0.006 -0.022 0.012 -0.042 0.018 -0.064 c 0.639 0.172 1.285 0.326 1.94 0.458 c -0.004 0.022 -0.008 0.043 -0.012 0.066 c -0.472 2.676 -0.014 4.993 -0.014 4.993 s 1.223 -2.021 1.695 -4.696 c 0.004 -0.024 0.008 -0.047 0.012 -0.071 c 0.654 0.096 1.314 0.172 1.98 0.227 c -0.002 0.025 -0.004 0.049 -0.005 0.074 c -0.158 2.712 0.566 4.96 0.566 4.96 s 0.98 -2.149 1.138 -4.861 c 0.002 -0.026 0.002 -0.051 0.004 -0.077 c 0.322 0.01 0.644 0.016 0.968 0.016 c 0.343 0 0.684 -0.007 1.024 -0.018 c 0.002 0.026 0.002 0.051 0.004 0.077 c 0.158 2.712 1.138 4.861 1.138 4.861 s 0.724 -2.248 0.566 -4.96 c -0.002 -0.026 -0.004 -0.051 -0.005 -0.078 c 0.666 -0.057 1.326 -0.133 1.979 -0.23 c 0.004 0.025 0.008 0.049 0.012 0.074 c 0.472 2.675 1.695 4.696 1.695 4.696 s 0.458 -2.317 -0.013 -4.993 c -0.004 -0.024 -0.009 -0.048 -0.013 -0.072 c 0.654 -0.133 1.3 -0.289 1.938 -0.462 c 0.007 0.024 0.013 0.047 0.02 0.071 c 0.779 2.603 2.228 4.468 2.228 4.468 s 0.186 -2.355 -0.593 -4.957 c -0.007 -0.024 -0.015 -0.047 -0.022 -0.071 c 0.633 -0.209 1.257 -0.436 1.872 -0.683 c 0.01 0.023 0.019 0.045 0.029 0.069 c 1.076 2.495 2.732 4.179 2.732 4.179 s -0.089 -2.36 -1.164 -4.855 c -0.01 -0.024 -0.021 -0.047 -0.031 -0.071 c 0.603 -0.281 1.198 -0.578 1.78 -0.895 c 0.013 0.022 0.025 0.044 0.038 0.067 c 1.358 2.353 3.199 3.833 3.199 3.833 s -0.362 -2.334 -1.72 -4.687 c -0.014 -0.024 -0.028 -0.046 -0.041 -0.07 c 0.566 -0.349 1.121 -0.714 1.663 -1.097 c 0.017 0.022 0.032 0.044 0.049 0.067 c 1.622 2.179 3.622 3.436 3.622 3.436 s -0.631 -2.276 -2.253 -4.456 c -0.017 -0.023 -0.034 -0.045 -0.051 -0.068 c 0.521 -0.412 1.029 -0.84 1.523 -1.283 c 0.02 0.022 0.039 0.043 0.059 0.064 c 1.864 1.976 3.996 2.992 3.996 2.992 s -0.89 -2.188 -2.754 -4.164 c -0.02 -0.022 -0.04 -0.042 -0.061 -0.063 c 0.47 -0.469 0.924 -0.953 1.364 -1.45 c 0.023 0.019 0.044 0.039 0.067 0.058 c 2.081 1.746 4.317 2.508 4.317 2.508 s -1.138 -2.07 -3.219 -3.816 c -0.023 -0.019 -0.045 -0.037 -0.068 -0.056 c 0.413 -0.519 0.809 -1.052 1.189 -1.597 c 0.025 0.016 0.048 0.032 0.073 0.049 c 2.27 1.493 4.579 1.99 4.579 1.99 s -1.371 -1.924 -3.64 -3.417 c -0.025 -0.016 -0.049 -0.031 -0.073 -0.047 c 0.349 -0.563 0.682 -1.138 0.996 -1.724 c 0.025 0.013 0.049 0.026 0.075 0.039 c 2.428 1.219 4.779 1.445 4.779 1.445 s -1.585 -1.751 -4.012 -2.971 c -0.026 -0.013 -0.051 -0.025 -0.077 -0.037 c 0.281 -0.6 0.546 -1.209 0.791 -1.828 c 0.026 0.01 0.05 0.019 0.076 0.029 c 2.553 0.929 4.914 0.88 4.914 0.88 s -1.778 -1.555 -4.33 -2.485 c -0.027 -0.01 -0.052 -0.018 -0.079 -0.028 c 0.209 -0.628 0.399 -1.264 0.569 -1.909 c 0.028 0.007 0.054 0.014 0.082 0.02 c 2.644 0.627 4.983 0.304 4.983 0.304 s -1.946 -1.338 -4.589 -1.965 c -0.028 -0.007 -0.056 -0.012 -0.084 -0.019 c 0.134 -0.647 0.247 -1.301 0.341 -1.962 C 76.207 50.147 76.235 50.151 76.265 50.154 z M 34.615 20.753 c 0.021 -0.038 0.042 -0.076 0.065 -0.114 c 0.012 -0.02 0.026 -0.039 0.038 -0.058 c 0.002 -0.003 0.004 -0.006 0.005 -0.008 c 1.286 -2.039 4.172 -2.819 6.823 -3.097 c 5.89 -0.778 11.996 0.887 17.152 3.83 c 5.17 2.92 9.728 7.309 12.078 12.766 c 1.12 2.418 1.929 5.295 0.839 7.444 c -0.002 0.004 -0.005 0.009 -0.007 0.013 c -0.01 0.02 -0.019 0.041 -0.03 0.061 c -0.02 0.038 -0.042 0.075 -0.063 0.112 c -0.509 0.903 -1.379 1.597 -2.714 1.918 c -1.794 0.432 -3.854 0.154 -5.686 0.162 c -2.333 0.011 -4.665 0.021 -6.997 0.032 c -1.284 0.006 -2.568 0.012 -3.852 0.018 c -1.48 0.067 -3.009 0.154 -4.409 -0.086 c -0.583 -0.1 -1.102 -0.306 -1.568 -0.587 c -0.48 -0.256 -0.923 -0.596 -1.307 -1.045 c -0.923 -1.079 -1.632 -2.437 -2.333 -3.742 c -0.653 -1.105 -1.306 -2.211 -1.959 -3.317 c -1.186 -2.008 -2.372 -4.016 -3.558 -6.025 c -0.931 -1.577 -2.226 -3.204 -2.774 -4.966 C 33.952 22.754 34.101 21.653 34.615 20.753 z M 46.253 45.623 c 0 0.85 -0.692 1.542 -1.542 1.542 c -0.85 0 -1.542 -0.692 -1.542 -1.542 s 0.692 -1.542 1.542 -1.542 C 45.561 44.081 46.253 44.773 46.253 45.623 z M 31.582 65.675 c -0.931 1.008 -1.959 1.43 -2.995 1.435 c -0.044 0.001 -0.087 0.002 -0.131 0.001 c -0.023 -0.001 -0.046 -0.003 -0.07 -0.004 c -0.003 0 -0.007 0 -0.01 -0.001 c -2.409 -0.094 -4.527 -2.203 -6.094 -4.361 c -3.619 -4.711 -5.229 -10.832 -5.259 -16.769 c -0.056 -5.937 1.466 -12.08 5.017 -16.843 c 1.535 -2.179 3.621 -4.318 6.027 -4.449 c 0.005 0 0.01 -0.001 0.015 -0.001 c 0.023 -0.001 0.045 -0.004 0.068 -0.005 c 0.043 -0.001 0.086 -0.001 0.128 -0.001 c 1.037 -0.011 2.072 0.396 3.019 1.392 c 1.271 1.337 2.06 3.261 2.983 4.843 c 1.175 2.015 2.351 4.029 3.526 6.043 c 0.647 1.109 1.294 2.218 1.941 3.327 c 0.797 1.248 1.638 2.529 2.129 3.861 c 0.205 0.555 0.286 1.107 0.275 1.651 c 0.018 0.544 -0.055 1.097 -0.251 1.655 c -0.473 1.339 -1.294 2.632 -2.074 3.891 c -0.631 1.118 -1.262 2.237 -1.893 3.355 c -1.146 2.031 -2.292 4.062 -3.438 6.094 C 33.595 62.385 32.833 64.32 31.582 65.675 z M 71.119 56.794 c -2.271 5.49 -6.766 9.945 -11.893 12.939 c -5.114 3.017 -11.195 4.77 -17.095 4.077 c -2.654 -0.24 -5.55 -0.977 -6.866 -2.996 c -0.003 -0.004 -0.006 -0.008 -0.008 -0.012 c -0.012 -0.019 -0.026 -0.037 -0.038 -0.056 c -0.023 -0.036 -0.044 -0.073 -0.065 -0.111 c -0.527 -0.893 -0.694 -1.993 -0.304 -3.31 c 0.523 -1.769 1.794 -3.415 2.703 -5.005 c 1.157 -2.025 2.314 -4.051 3.471 -6.076 c 0.637 -1.115 1.274 -2.23 1.911 -3.344 c 0.682 -1.315 1.371 -2.683 2.279 -3.775 c 0.378 -0.455 0.816 -0.801 1.293 -1.064 c 0.462 -0.288 0.978 -0.501 1.559 -0.61 c 1.396 -0.26 2.927 -0.195 4.407 -0.149 c 1.284 -0.013 2.568 -0.026 3.852 -0.038 c 2.332 -0.023 4.664 -0.046 6.996 -0.069 c 1.832 -0.018 3.888 -0.325 5.688 0.08 c 1.339 0.302 2.218 0.982 2.74 1.877 c 0.023 0.037 0.045 0.075 0.066 0.113 c 0.011 0.021 0.02 0.042 0.031 0.062 c 0.002 0.003 0.003 0.006 0.005 0.009 C 72.972 51.47 72.204 54.359 71.119 56.794 z"
            style="stroke: none; stroke-width: 1; stroke-dasharray: none; stroke-linecap: butt; stroke-linejoin: miter; stroke-miterlimit: 10; fill: url(#SVGID_5); fill-rule: nonzero; opacity: 1;"
            transform=" matrix(1 0 0 1 0 0) "
            stroke-linecap="round"
        />
</g>
</svg>
